<svg width="162" height="28" viewBox="0 0 162 28" fill="none" xmlns="http://www.w3.org/2000/svg">
<path d="M2.79133 16.4759C2.4797 16.1517 1.87988 16.3608 1.87988 16.8106V24.8908C1.87988 25.7159 2.20963 26.5072 2.79658 27.0907C3.38353 27.6741 4.17961 28.0019 5.00969 28.0019H15.964C16.7941 28.0019 17.5901 27.6741 18.1771 27.0907C18.3173 26.9513 18.4429 26.8 18.5528 26.6392C18.6919 26.4357 18.6073 26.1653 18.3933 26.0428L18.0172 25.8273C15.7934 24.5535 12.6853 22.7681 10.0012 21.208C7.38512 19.6875 5.01027 18.2891 4.38691 17.8484C3.81212 17.442 3.27779 16.9821 2.79133 16.4759Z" fill="#00A0D0"/>
<path d="M6.57341 8.57637L6.57337 8.55417C6.57337 7.52278 6.98555 6.53362 7.71924 5.80431C8.45293 5.075 9.44803 4.66528 10.4856 4.66528C11.5232 4.66528 12.5183 5.075 13.252 5.80431C13.927 6.47526 14.3298 7.36613 14.39 8.30749C14.3995 8.45625 14.4886 8.59047 14.627 8.64582L18.5031 10.1959C18.6872 10.2695 18.8989 10.1829 18.9539 9.99246C19.0926 9.51315 19.0926 9.05711 19.0926 8.55417C19.0926 6.28509 18.1858 4.10896 16.5717 2.50448C14.9941 0.936346 12.8672 0.0398087 10.6406 0C5.78774 0.0844915 1.87988 4.02126 1.87988 8.86528C1.87988 11.8491 3.36262 14.4887 5.63565 16.0957C6.64679 16.8106 14.1647 21.1399 18.6736 23.724C18.8602 23.831 19.0926 23.6964 19.0926 23.4813V21.776C19.0926 19.6293 17.9815 17.9742 16.1506 16.8371C14.3196 15.7 9.23737 12.5421 9.23737 12.5421L9.22744 12.5364C7.61323 11.5326 6.61837 10.5347 6.57486 8.68208C6.57404 8.64715 6.57356 8.61191 6.57341 8.57637Z" fill="#7400B7"/>
<path d="M33.7311 22.7456C32.4429 22.7456 31.3348 22.4727 30.4068 21.9268C29.4843 21.3755 28.7747 20.6113 28.2779 19.6342C27.7867 18.6571 27.541 17.5327 27.541 16.2608C27.541 14.9726 27.7894 13.8426 28.2861 12.871C28.7883 11.8939 29.5007 11.1324 30.4232 10.5866C31.3457 10.0352 32.4429 9.75958 33.7147 9.75958C34.8119 9.75958 35.7726 9.95882 36.5969 10.3573C37.4211 10.7558 38.0734 11.3153 38.5538 12.0358C39.0342 12.7564 39.2989 13.6024 39.348 14.5741H36.0565C35.9637 13.9463 35.718 13.4414 35.3196 13.0593C34.9265 12.6718 34.4107 12.478 33.7721 12.478C33.2316 12.478 32.7595 12.6254 32.3555 12.9201C31.9571 13.2094 31.6459 13.6325 31.4221 14.1893C31.1983 14.746 31.0864 15.4202 31.0864 16.2117C31.0864 17.0141 31.1956 17.6964 31.4139 18.2587C31.6377 18.8209 31.9516 19.2494 32.3555 19.5442C32.7595 19.8389 33.2316 19.9863 33.7721 19.9863C34.1705 19.9863 34.5281 19.9044 34.8447 19.7407C35.1667 19.5769 35.4315 19.3395 35.6389 19.0283C35.8518 18.7117 35.991 18.3323 36.0565 17.8902H39.348C39.2934 18.8509 39.0314 19.697 38.562 20.4285C38.098 21.1545 37.4566 21.7221 36.6378 22.1315C35.819 22.5409 34.8501 22.7456 33.7311 22.7456ZM45.1676 22.7374C44.3652 22.7374 43.6501 22.5983 43.0224 22.3199C42.3946 22.036 41.8979 21.6184 41.5322 21.0671C41.1719 20.5103 40.9918 19.8171 40.9918 18.9874C40.9918 18.2887 41.12 17.7019 41.3766 17.227C41.6331 16.7521 41.9825 16.37 42.4246 16.0807C42.8668 15.7914 43.369 15.573 43.9312 15.4256C44.4989 15.2782 45.0939 15.1745 45.7162 15.1145C46.4476 15.0381 47.0372 14.9671 47.4848 14.9016C47.9324 14.8306 48.2572 14.7269 48.4592 14.5905C48.6611 14.454 48.7621 14.252 48.7621 13.9846V13.9354C48.7621 13.4169 48.5983 13.0156 48.2708 12.7318C47.9488 12.4479 47.4902 12.306 46.8953 12.306C46.2675 12.306 45.7681 12.4452 45.3969 12.7236C45.0257 12.9965 44.78 13.3404 44.66 13.7553L41.4339 13.4933C41.5977 12.7291 41.9197 12.0686 42.4001 11.5118C42.8804 10.9496 43.5 10.5183 44.2587 10.2181C45.0229 9.91242 45.9072 9.75958 46.9116 9.75958C47.6103 9.75958 48.279 9.84146 48.9177 10.0052C49.5618 10.169 50.1322 10.4228 50.629 10.7667C51.1311 11.1106 51.5269 11.5527 51.8162 12.0931C52.1055 12.6281 52.2502 13.2695 52.2502 14.0173V22.5H48.9422V20.756H48.844C48.642 21.149 48.3718 21.4956 48.0334 21.7958C47.6949 22.0906 47.2883 22.3226 46.8134 22.4918C46.3385 22.6556 45.7899 22.7374 45.1676 22.7374ZM46.1665 20.3302C46.6796 20.3302 47.1327 20.2292 47.5257 20.0272C47.9187 19.8198 48.2272 19.5414 48.451 19.1921C48.6748 18.8427 48.7867 18.447 48.7867 18.0048V16.6702C48.6775 16.7412 48.5274 16.8067 48.3363 16.8667C48.1507 16.9213 47.9406 16.9731 47.7059 17.0223C47.4711 17.0659 47.2364 17.1069 47.0017 17.1451C46.767 17.1778 46.5541 17.2079 46.363 17.2352C45.9536 17.2952 45.5961 17.3907 45.2904 17.5217C44.9847 17.6527 44.7473 17.8302 44.5781 18.054C44.4089 18.2723 44.3242 18.5452 44.3242 18.8727C44.3242 19.3476 44.4962 19.7106 44.8401 19.9617C45.1894 20.2074 45.6316 20.3302 46.1665 20.3302ZM61.6458 9.92334V12.5435H54.072V9.92334H61.6458ZM55.7914 6.91018H59.2795V18.6353C59.2795 18.9574 59.3286 19.2085 59.4269 19.3886C59.5251 19.5633 59.6616 19.6861 59.8363 19.757C60.0164 19.828 60.2238 19.8635 60.4586 19.8635C60.6223 19.8635 60.7861 19.8498 60.9498 19.8225C61.1136 19.7898 61.2391 19.7652 61.3265 19.7489L61.8751 22.3444C61.7004 22.399 61.4548 22.4618 61.1382 22.5328C60.8216 22.6092 60.4367 22.6556 59.9837 22.6719C59.143 22.7047 58.4061 22.5928 57.7729 22.3362C57.1452 22.0797 56.6566 21.6812 56.3073 21.1408C55.9579 20.6004 55.786 19.9181 55.7914 19.0938V6.91018ZM69.4653 22.7456C68.1771 22.7456 67.069 22.4727 66.141 21.9268C65.2185 21.3755 64.5089 20.6113 64.0121 19.6342C63.5208 18.6571 63.2752 17.5327 63.2752 16.2608C63.2752 14.9726 63.5236 13.8426 64.0203 12.871C64.5225 11.8939 65.2349 11.1324 66.1574 10.5866C67.0799 10.0352 68.1771 9.75958 69.4489 9.75958C70.5461 9.75958 71.5068 9.95882 72.3311 10.3573C73.1553 10.7558 73.8076 11.3153 74.288 12.0358C74.7683 12.7564 75.0331 13.6024 75.0822 14.5741H71.7907C71.6979 13.9463 71.4522 13.4414 71.0537 13.0593C70.6607 12.6718 70.1449 12.478 69.5062 12.478C68.9658 12.478 68.4937 12.6254 68.0897 12.9201C67.6912 13.2094 67.3801 13.6325 67.1563 14.1893C66.9325 14.746 66.8206 15.4202 66.8206 16.2117C66.8206 17.0141 66.9298 17.6964 67.1481 18.2587C67.3719 18.8209 67.6858 19.2494 68.0897 19.5442C68.4937 19.8389 68.9658 19.9863 69.5062 19.9863C69.9047 19.9863 70.2622 19.9044 70.5788 19.7407C70.9009 19.5769 71.1656 19.3395 71.3731 19.0283C71.586 18.7117 71.7252 18.3323 71.7907 17.8902H75.0822C75.0276 18.8509 74.7656 19.697 74.2962 20.4285C73.8322 21.1545 73.1908 21.7221 72.372 22.1315C71.5532 22.5409 70.5843 22.7456 69.4653 22.7456ZM80.8035 15.2291V22.5H77.3155V5.73112H80.7053V12.1423H80.8526C81.1365 11.3999 81.595 10.8186 82.2282 10.3982C82.8614 9.97247 83.6557 9.75958 84.6109 9.75958C85.4843 9.75958 86.2458 9.95063 86.8953 10.3327C87.5504 10.7094 88.058 11.2525 88.4183 11.9621C88.784 12.6663 88.9642 13.5097 88.9587 14.4922V22.5H85.4706V15.1145C85.4761 14.3394 85.2796 13.7362 84.8811 13.305C84.4881 12.8737 83.9368 12.6581 83.2271 12.6581C82.7522 12.6581 82.3319 12.7591 81.9662 12.9611C81.6059 13.163 81.3221 13.4578 81.1147 13.8454C80.9127 14.2275 80.809 14.6887 80.8035 15.2291Z" fill="#7400B7"/>
<path d="M95.1918 15.2291V22.5H91.7037V5.73112H95.0935V12.1423H95.2409C95.5247 11.3999 95.9833 10.8186 96.6165 10.3982C97.2497 9.97247 98.0439 9.75958 98.9992 9.75958C99.8725 9.75958 100.634 9.95063 101.284 10.3327C101.939 10.7094 102.446 11.2525 102.807 11.9621C103.172 12.6663 103.352 13.5097 103.347 14.4922V22.5H99.8589V15.1145C99.8643 14.3394 99.6678 13.7362 99.2694 13.305C98.8763 12.8737 98.325 12.6581 97.6154 12.6581C97.1405 12.6581 96.7202 12.7591 96.3545 12.9611C95.9942 13.163 95.7103 13.4578 95.5029 13.8454C95.3009 14.2275 95.1972 14.6887 95.1918 15.2291ZM111.774 22.7456C110.503 22.7456 109.403 22.4754 108.475 21.935C107.552 21.3892 106.84 20.6304 106.338 19.6588C105.835 18.6817 105.584 17.549 105.584 16.2608C105.584 14.9616 105.835 13.8263 106.338 12.8546C106.84 11.8775 107.552 11.1188 108.475 10.5784C109.403 10.0325 110.503 9.75958 111.774 9.75958C113.046 9.75958 114.143 10.0325 115.066 10.5784C115.994 11.1188 116.709 11.8775 117.211 12.8546C117.713 13.8263 117.964 14.9616 117.964 16.2608C117.964 17.549 117.713 18.6817 117.211 19.6588C116.709 20.6304 115.994 21.3892 115.066 21.935C114.143 22.4754 113.046 22.7456 111.774 22.7456ZM111.791 20.0436C112.369 20.0436 112.852 19.8799 113.24 19.5523C113.628 19.2194 113.92 18.7663 114.116 18.1931C114.318 17.62 114.419 16.9677 114.419 16.2362C114.419 15.5048 114.318 14.8525 114.116 14.2793C113.92 13.7062 113.628 13.2531 113.24 12.9201C112.852 12.5871 112.369 12.4207 111.791 12.4207C111.207 12.4207 110.715 12.5871 110.317 12.9201C109.924 13.2531 109.626 13.7062 109.424 14.2793C109.228 14.8525 109.13 15.5048 109.13 16.2362C109.13 16.9677 109.228 17.62 109.424 18.1931C109.626 18.7663 109.924 19.2194 110.317 19.5523C110.715 19.8799 111.207 20.0436 111.791 20.0436ZM126.922 9.92334V12.5435H119.348V9.92334H126.922ZM121.068 6.91018H124.556V18.6353C124.556 18.9574 124.605 19.2085 124.703 19.3886C124.801 19.5633 124.938 19.6861 125.113 19.757C125.293 19.828 125.5 19.8635 125.735 19.8635C125.899 19.8635 126.062 19.8498 126.226 19.8225C126.39 19.7898 126.515 19.7652 126.603 19.7489L127.151 22.3444C126.977 22.399 126.731 22.4618 126.414 22.5328C126.098 22.6092 125.713 22.6556 125.26 22.6719C124.419 22.7047 123.682 22.5928 123.049 22.3362C122.421 22.0797 121.933 21.6812 121.584 21.1408C121.234 20.6004 121.062 19.9181 121.068 19.0938V6.91018ZM134.791 22.7456C133.497 22.7456 132.383 22.4836 131.45 21.9596C130.522 21.4301 129.807 20.6823 129.305 19.7161C128.803 18.7445 128.551 17.5954 128.551 16.269C128.551 14.9753 128.803 13.8399 129.305 12.8628C129.807 11.8857 130.514 11.1242 131.425 10.5784C132.342 10.0325 133.418 9.75958 134.651 9.75958C135.481 9.75958 136.254 9.89332 136.969 10.1608C137.689 10.4228 138.317 10.8186 138.852 11.348C139.392 11.8775 139.813 12.5435 140.113 13.3459C140.413 14.1429 140.563 15.0763 140.563 16.1462V17.1042H129.943V14.9425H137.28C137.28 14.4403 137.171 13.9955 136.952 13.6079C136.734 13.2203 136.431 12.9174 136.043 12.699C135.661 12.4752 135.216 12.3633 134.709 12.3633C134.179 12.3633 133.71 12.4862 133.3 12.7318C132.897 12.972 132.58 13.2968 132.351 13.7062C132.121 14.1101 132.004 14.5604 131.999 15.0572V17.1123C131.999 17.7346 132.113 18.2723 132.342 18.7254C132.577 19.1784 132.907 19.5278 133.333 19.7734C133.759 20.0191 134.264 20.1419 134.848 20.1419C135.236 20.1419 135.59 20.0873 135.912 19.9781C136.234 19.8689 136.51 19.7052 136.739 19.4868C136.969 19.2685 137.143 19.001 137.263 18.6844L140.489 18.8973C140.326 19.6724 139.99 20.3493 139.482 20.9279C138.98 21.5011 138.331 21.9487 137.534 22.2707C136.742 22.5873 135.828 22.7456 134.791 22.7456ZM146.327 5.73112V22.5H142.839V5.73112H146.327ZM159.586 13.5097L156.392 13.7062C156.338 13.4332 156.221 13.1876 156.04 12.9692C155.86 12.7454 155.623 12.568 155.328 12.437C155.039 12.3006 154.692 12.2323 154.288 12.2323C153.748 12.2323 153.292 12.347 152.921 12.5762C152.55 12.8 152.364 13.1003 152.364 13.4769C152.364 13.7771 152.484 14.031 152.724 14.2384C152.964 14.4458 153.377 14.6123 153.961 14.7378L156.237 15.1964C157.46 15.4475 158.371 15.8514 158.972 16.4082C159.572 16.965 159.872 17.6964 159.872 18.6025C159.872 19.4268 159.629 20.1501 159.144 20.7723C158.663 21.3946 158.003 21.8804 157.162 22.2298C156.327 22.5737 155.364 22.7456 154.272 22.7456C152.607 22.7456 151.28 22.399 150.292 21.7058C149.31 21.0071 148.734 20.0573 148.565 18.8564L151.996 18.6762C152.099 19.1839 152.35 19.5715 152.749 19.8389C153.147 20.1009 153.658 20.2319 154.28 20.2319C154.891 20.2319 155.383 20.1146 155.754 19.8799C156.13 19.6397 156.321 19.3313 156.327 18.9546C156.321 18.638 156.188 18.3787 155.926 18.1768C155.664 17.9693 155.26 17.811 154.714 17.7019L152.536 17.2679C151.308 17.0223 150.393 16.5965 149.793 15.9906C149.198 15.3847 148.9 14.6123 148.9 13.6734C148.9 12.8655 149.119 12.1696 149.556 11.5855C149.998 11.0014 150.617 10.5511 151.414 10.2345C152.217 9.91788 153.155 9.75958 154.231 9.75958C155.819 9.75958 157.069 10.0953 157.981 10.7667C158.898 11.4381 159.433 12.3524 159.586 13.5097Z" fill="#00A0D0"/>
</svg>
